<mxfile host="app.diagrams.net" modified="2021-06-22T12:38:01.045Z" agent="5.0 (Windows NT 10.0; Win64; x64) AppleWebKit/537.36 (KHTML, like Gecko) Chrome/90.0.4430.212 Safari/537.36 OPR/76.0.4017.177" etag="CQQn3NpXWY2icmaSu8Nb" version="14.2.9" type="github">
  <diagram id="b-61CNpBS8V2YfRz8Dn9" name="Page-1">
    <mxGraphModel dx="1169" dy="644" grid="1" gridSize="10" guides="1" tooltips="1" connect="1" arrows="1" fold="1" page="1" pageScale="1" pageWidth="827" pageHeight="1169" math="0" shadow="0">
      <root>
        <mxCell id="0" />
        <mxCell id="1" parent="0" />
        <mxCell id="3YUqfyxER8YiihMvJAyy-1" value="Scanner" style="rounded=0;whiteSpace=wrap;html=1;" parent="1" vertex="1">
          <mxGeometry x="90" y="190" width="120" height="60" as="geometry" />
        </mxCell>
        <mxCell id="3YUqfyxER8YiihMvJAyy-2" value="Scanner" style="rounded=0;whiteSpace=wrap;html=1;" parent="1" vertex="1">
          <mxGeometry x="90" y="260" width="120" height="60" as="geometry" />
        </mxCell>
        <mxCell id="OJophZh3A3wmWeVk-yiW-1" value="Online Gateway" style="rounded=0;whiteSpace=wrap;html=1;" parent="1" vertex="1">
          <mxGeometry x="280" y="260" width="120" height="60" as="geometry" />
        </mxCell>
        <mxCell id="OJophZh3A3wmWeVk-yiW-2" value="Scanner" style="rounded=0;whiteSpace=wrap;html=1;" parent="1" vertex="1">
          <mxGeometry x="90" y="330" width="120" height="60" as="geometry" />
        </mxCell>
        <mxCell id="OJophZh3A3wmWeVk-yiW-4" value="" style="endArrow=classic;html=1;exitX=1;exitY=0.5;exitDx=0;exitDy=0;entryX=0;entryY=0.5;entryDx=0;entryDy=0;" parent="1" source="3YUqfyxER8YiihMvJAyy-2" target="OJophZh3A3wmWeVk-yiW-1" edge="1">
          <mxGeometry width="50" height="50" relative="1" as="geometry">
            <mxPoint x="270" y="280" as="sourcePoint" />
            <mxPoint x="320" y="230" as="targetPoint" />
          </mxGeometry>
        </mxCell>
        <mxCell id="OJophZh3A3wmWeVk-yiW-5" value="" style="endArrow=classic;html=1;exitX=1;exitY=0.75;exitDx=0;exitDy=0;entryX=0;entryY=0.25;entryDx=0;entryDy=0;" parent="1" source="3YUqfyxER8YiihMvJAyy-1" target="OJophZh3A3wmWeVk-yiW-1" edge="1">
          <mxGeometry width="50" height="50" relative="1" as="geometry">
            <mxPoint x="220" y="300" as="sourcePoint" />
            <mxPoint x="330" y="300" as="targetPoint" />
          </mxGeometry>
        </mxCell>
        <mxCell id="OJophZh3A3wmWeVk-yiW-6" value="" style="endArrow=classic;html=1;exitX=1;exitY=0.5;exitDx=0;exitDy=0;entryX=0;entryY=0.75;entryDx=0;entryDy=0;" parent="1" source="OJophZh3A3wmWeVk-yiW-2" target="OJophZh3A3wmWeVk-yiW-1" edge="1">
          <mxGeometry width="50" height="50" relative="1" as="geometry">
            <mxPoint x="220" y="245" as="sourcePoint" />
            <mxPoint x="330" y="285" as="targetPoint" />
          </mxGeometry>
        </mxCell>
        <mxCell id="OJophZh3A3wmWeVk-yiW-7" value="" style="whiteSpace=wrap;html=1;aspect=fixed;" parent="1" vertex="1">
          <mxGeometry x="450" y="170" width="250" height="250" as="geometry" />
        </mxCell>
        <mxCell id="OJophZh3A3wmWeVk-yiW-10" value="" style="strokeWidth=2;html=1;shape=mxgraph.flowchart.direct_data;whiteSpace=wrap;" parent="1" vertex="1">
          <mxGeometry x="510" y="180" width="100" height="60" as="geometry" />
        </mxCell>
        <mxCell id="OJophZh3A3wmWeVk-yiW-11" value="" style="strokeWidth=2;html=1;shape=mxgraph.flowchart.direct_data;whiteSpace=wrap;" parent="1" vertex="1">
          <mxGeometry x="510" y="260" width="100" height="60" as="geometry" />
        </mxCell>
        <mxCell id="OJophZh3A3wmWeVk-yiW-12" value="" style="strokeWidth=2;html=1;shape=mxgraph.flowchart.direct_data;whiteSpace=wrap;" parent="1" vertex="1">
          <mxGeometry x="510" y="350" width="100" height="60" as="geometry" />
        </mxCell>
        <mxCell id="OJophZh3A3wmWeVk-yiW-13" value="&lt;font style=&quot;font-size: 17px&quot;&gt;Kafka&lt;/font&gt;" style="text;html=1;strokeColor=none;fillColor=none;align=center;verticalAlign=middle;whiteSpace=wrap;rounded=0;" parent="1" vertex="1">
          <mxGeometry x="520" y="420" width="100" height="70" as="geometry" />
        </mxCell>
        <mxCell id="OJophZh3A3wmWeVk-yiW-18" value="" style="endArrow=classic;html=1;exitX=1;exitY=0.5;exitDx=0;exitDy=0;" parent="1" source="OJophZh3A3wmWeVk-yiW-1" target="OJophZh3A3wmWeVk-yiW-7" edge="1">
          <mxGeometry width="50" height="50" relative="1" as="geometry">
            <mxPoint x="410" y="320" as="sourcePoint" />
            <mxPoint x="460" y="270" as="targetPoint" />
          </mxGeometry>
        </mxCell>
        <mxCell id="AaOzUabyHjkiOjanLfim-22" style="edgeStyle=orthogonalEdgeStyle;rounded=0;orthogonalLoop=1;jettySize=auto;html=1;entryX=1;entryY=0.5;entryDx=0;entryDy=0;exitX=0;exitY=0.5;exitDx=0;exitDy=0;" edge="1" parent="1" source="AaOzUabyHjkiOjanLfim-18" target="AaOzUabyHjkiOjanLfim-17">
          <mxGeometry relative="1" as="geometry" />
        </mxCell>
        <mxCell id="AaOzUabyHjkiOjanLfim-1" value="Spark App" style="rounded=0;whiteSpace=wrap;html=1;" vertex="1" parent="1">
          <mxGeometry x="760" y="270" width="120" height="60" as="geometry" />
        </mxCell>
        <mxCell id="AaOzUabyHjkiOjanLfim-2" value="" style="endArrow=classic;html=1;entryX=1;entryY=0.5;entryDx=0;entryDy=0;exitX=0;exitY=0.5;exitDx=0;exitDy=0;" edge="1" parent="1" source="AaOzUabyHjkiOjanLfim-1" target="OJophZh3A3wmWeVk-yiW-7">
          <mxGeometry width="50" height="50" relative="1" as="geometry">
            <mxPoint x="590" y="360" as="sourcePoint" />
            <mxPoint x="640" y="310" as="targetPoint" />
          </mxGeometry>
        </mxCell>
        <mxCell id="AaOzUabyHjkiOjanLfim-6" value="" style="edgeStyle=orthogonalEdgeStyle;rounded=0;orthogonalLoop=1;jettySize=auto;html=1;entryX=1.012;entryY=0.213;entryDx=0;entryDy=0;entryPerimeter=0;" edge="1" parent="1" source="AaOzUabyHjkiOjanLfim-3" target="OJophZh3A3wmWeVk-yiW-7">
          <mxGeometry relative="1" as="geometry" />
        </mxCell>
        <mxCell id="AaOzUabyHjkiOjanLfim-3" value="Spark App" style="rounded=0;whiteSpace=wrap;html=1;" vertex="1" parent="1">
          <mxGeometry x="760" y="180" width="120" height="60" as="geometry" />
        </mxCell>
        <mxCell id="AaOzUabyHjkiOjanLfim-5" value="" style="edgeStyle=orthogonalEdgeStyle;rounded=0;orthogonalLoop=1;jettySize=auto;html=1;entryX=1;entryY=0.885;entryDx=0;entryDy=0;entryPerimeter=0;" edge="1" parent="1" source="AaOzUabyHjkiOjanLfim-4" target="OJophZh3A3wmWeVk-yiW-7">
          <mxGeometry relative="1" as="geometry" />
        </mxCell>
        <mxCell id="AaOzUabyHjkiOjanLfim-4" value="Spark App" style="rounded=0;whiteSpace=wrap;html=1;" vertex="1" parent="1">
          <mxGeometry x="760" y="370" width="120" height="60" as="geometry" />
        </mxCell>
        <mxCell id="AaOzUabyHjkiOjanLfim-8" value="Storage (Parquet files or other)&amp;nbsp;" style="whiteSpace=wrap;html=1;aspect=fixed;" vertex="1" parent="1">
          <mxGeometry x="920" y="230" width="130" height="130" as="geometry" />
        </mxCell>
        <mxCell id="AaOzUabyHjkiOjanLfim-11" value="&lt;font style=&quot;font-size: 17px&quot;&gt;ETL&lt;/font&gt;" style="text;html=1;strokeColor=none;fillColor=none;align=center;verticalAlign=middle;whiteSpace=wrap;rounded=0;" vertex="1" parent="1">
          <mxGeometry x="787" y="442.5" width="70" height="25" as="geometry" />
        </mxCell>
        <mxCell id="AaOzUabyHjkiOjanLfim-13" value="" style="endArrow=classic;html=1;exitX=1;exitY=0.75;exitDx=0;exitDy=0;" edge="1" parent="1" source="AaOzUabyHjkiOjanLfim-3" target="AaOzUabyHjkiOjanLfim-8">
          <mxGeometry width="50" height="50" relative="1" as="geometry">
            <mxPoint x="920" y="240" as="sourcePoint" />
            <mxPoint x="970" y="190" as="targetPoint" />
          </mxGeometry>
        </mxCell>
        <mxCell id="AaOzUabyHjkiOjanLfim-14" value="" style="endArrow=classic;html=1;entryX=0;entryY=0.5;entryDx=0;entryDy=0;" edge="1" parent="1" target="AaOzUabyHjkiOjanLfim-8">
          <mxGeometry width="50" height="50" relative="1" as="geometry">
            <mxPoint x="880" y="295" as="sourcePoint" />
            <mxPoint x="950" y="290" as="targetPoint" />
          </mxGeometry>
        </mxCell>
        <mxCell id="AaOzUabyHjkiOjanLfim-15" value="" style="endArrow=classic;html=1;exitX=1;exitY=0.25;exitDx=0;exitDy=0;entryX=0;entryY=0.75;entryDx=0;entryDy=0;" edge="1" parent="1" source="AaOzUabyHjkiOjanLfim-4" target="AaOzUabyHjkiOjanLfim-8">
          <mxGeometry width="50" height="50" relative="1" as="geometry">
            <mxPoint x="895.6399999999999" y="304" as="sourcePoint" />
            <mxPoint x="970" y="305" as="targetPoint" />
          </mxGeometry>
        </mxCell>
        <mxCell id="AaOzUabyHjkiOjanLfim-17" value="Prometheus" style="rounded=0;whiteSpace=wrap;html=1;" vertex="1" parent="1">
          <mxGeometry x="1080" y="180" width="120" height="60" as="geometry" />
        </mxCell>
        <mxCell id="AaOzUabyHjkiOjanLfim-18" value="Grafana" style="rounded=0;whiteSpace=wrap;html=1;" vertex="1" parent="1">
          <mxGeometry x="1230" y="180" width="120" height="60" as="geometry" />
        </mxCell>
        <mxCell id="AaOzUabyHjkiOjanLfim-20" value="" style="endArrow=classic;html=1;exitX=0;exitY=0.5;exitDx=0;exitDy=0;entryX=1;entryY=0.25;entryDx=0;entryDy=0;" edge="1" parent="1" source="AaOzUabyHjkiOjanLfim-17" target="AaOzUabyHjkiOjanLfim-8">
          <mxGeometry width="50" height="50" relative="1" as="geometry">
            <mxPoint x="710" y="350" as="sourcePoint" />
            <mxPoint x="760" y="300" as="targetPoint" />
          </mxGeometry>
        </mxCell>
        <mxCell id="AaOzUabyHjkiOjanLfim-23" value="Data Mining( Spark ML etc.)" style="rounded=0;whiteSpace=wrap;html=1;" vertex="1" parent="1">
          <mxGeometry x="1090" y="290" width="120" height="60" as="geometry" />
        </mxCell>
        <mxCell id="AaOzUabyHjkiOjanLfim-24" value="" style="endArrow=classic;html=1;" edge="1" parent="1" source="AaOzUabyHjkiOjanLfim-23">
          <mxGeometry width="50" height="50" relative="1" as="geometry">
            <mxPoint x="1080" y="380" as="sourcePoint" />
            <mxPoint x="1050" y="321" as="targetPoint" />
          </mxGeometry>
        </mxCell>
      </root>
    </mxGraphModel>
  </diagram>
</mxfile>
